<svg xmlns="http://www.w3.org/2000/svg" viewBox="0 0 1600 1000" preserveAspectRatio="xMidYMid slice">
  <path fill="#f3f1ed" d="M0 0h1600v1000H0z"/>
  <path fill="#ebe8e2" d="M0 808h1600v192H0z"/>
  <path d="M128 808H1214" fill="none" stroke="#d9d8d1" stroke-width="2"/>
  <path d="M164 808V568c0-70 54-124 124-124h70v364Z" fill="#d5c2aa"/>
  <path d="M164 808V568c0-70 54-124 124-124h70v364Z" fill="none" stroke="#f9f6f0" stroke-opacity=".68" stroke-width="3"/>
  <path d="M298 808V351c0-135 107-231 250-231h52c143 0 250 96 250 231v457H716V359c0-67-46-108-116-108h-52c-70 0-116 41-116 108v449Z" fill="#819da4"/>
  <path d="M298 808V351c0-135 107-231 250-231h52c143 0 250 96 250 231v457H716V359c0-67-46-108-116-108h-52c-70 0-116 41-116 108v449Z" fill="none" stroke="#ecf0eb" stroke-opacity=".68" stroke-width="3"/>
  <path d="M850 500v308h116V579c0-44-35-79-79-79Z" fill="#b8c7bf"/>
  <path d="M850 500v308h116V579c0-44-35-79-79-79Z" fill="none" stroke="#ecf0eb" stroke-opacity=".68" stroke-width="3"/>
  <path d="M1050 808V654h138v154Z" fill="#e0d6c8"/>
  <path d="M1050 654h138M1050 808h138" fill="none" stroke="#f9f6f0" stroke-opacity=".65" stroke-width="3"/>
  <path d="M115 858H1235" fill="none" stroke="#d7d9d1" stroke-opacity=".7" stroke-width="2"/>
</svg>
