<svg xmlns="http://www.w3.org/2000/svg" viewBox="0 0 1800 1200" preserveAspectRatio="xMidYMid slice">
  <rect width="1800" height="1200" fill="#22282c"/>
  <path d="M-180-100H1120C997 91 844 230 613 332L-180 686Z" fill="#303a3d"/>
  <path d="M-160 1200V884L514 545C835 384 1021 191 1120-100H1287C1207 255 1008 475 666 664L-160 1121Z" fill="#3b4a4d"/>
  <path d="M-160 1200V1121L666 664C998 480 1203 260 1287-100H1370C1310 272 1112 537 765 743L-20 1200Z" fill="#46585b"/>
  <path d="M-160 1200H-20L765 743C1061 567 1246 347 1332 68C1283 398 1080 666 790 850L237 1200Z" fill="#506367"/>
  <path d="M237 1200 790 850C983 727 1138 566 1236 374C1170 601 1012 792 817 926L419 1200Z" fill="#3d4c4f"/>
  <path d="M1800 1200H885C1027 1098 1168 992 1311 909C1477 813 1644 774 1800 779Z" fill="#303b3d"/>
</svg>
